HIERARCHY
ROOT Hips
{
  OFFSET -258.878 73.3969 767.956
  CHANNELS 6 Xposition Yposition Zposition Zrotation Xrotation Yrotation
  JOINT Spine
  {
    OFFSET 1.01188e-05 8 1.11689e-05
    CHANNELS 6 Xposition Yposition Zposition Zrotation Xrotation Yrotation
    JOINT Spine1
    {
      OFFSET -1.46292e-05 8 -3.41038e-05
      CHANNELS 6 Xposition Yposition Zposition Zrotation Xrotation Yrotation
      JOINT Spine2
      {
        OFFSET 0 8 0
        CHANNELS 6 Xposition Yposition Zposition Zrotation Xrotation Yrotation
        JOINT Spine3
        {
          OFFSET 0 8 0
          CHANNELS 6 Xposition Yposition Zposition Zrotation Xrotation Yrotation
          JOINT Neck
          {
            OFFSET -0.000166333 17 -8.10048e-05
            CHANNELS 6 Xposition Yposition Zposition Zrotation Xrotation Yrotation
            JOINT Head
            {
              OFFSET 0 10.8 1.47861e-05
              CHANNELS 6 Xposition Yposition Zposition Zrotation Xrotation Yrotation
              End Site
              {
                OFFSET 0 20.25 0
              }
            }
          }
          JOINT LeftShoulder
          {
            OFFSET 4.99983 17.0001 0
            CHANNELS 6 Xposition Yposition Zposition Zrotation Xrotation Yrotation
            JOINT LeftShoulder2
            {
              OFFSET 6.45 0 0
              CHANNELS 6 Xposition Yposition Zposition Zrotation Xrotation Yrotation
              JOINT LeftArm
              {
                OFFSET 6.44996 5.09859e-05 0.000459944
                CHANNELS 6 Xposition Yposition Zposition Zrotation Xrotation Yrotation
                JOINT LeftForeArm
                {
                  OFFSET -1.25683e-05 -32.4 -2
                  CHANNELS 6 Xposition Yposition Zposition Zrotation Xrotation Yrotation
                  JOINT LeftHand
                  {
                    OFFSET 0 -25.65 2.00002
                    CHANNELS 6 Xposition Yposition Zposition Zrotation Xrotation Yrotation
                    JOINT LeftHandThumb1
                    {
                      OFFSET -0.500002 -1.49999 2.64999
                      CHANNELS 6 Xposition Yposition Zposition Zrotation Xrotation Yrotation
                      JOINT LeftHandThumb2
                      {
                        OFFSET 0 -3.80001 3.69999
                        CHANNELS 6 Xposition Yposition Zposition Zrotation Xrotation Yrotation
                        JOINT LeftHandThumb3
                        {
                          OFFSET 1.22459e-05 -3.00002 2.70001
                          CHANNELS 6 Xposition Yposition Zposition Zrotation Xrotation Yrotation
                          End Site
                          {
                            OFFSET 0 -2.29999 1.8
                          }
                        }
                      }
                    }
                    JOINT LeftHandIndex
                    {
                      OFFSET 0 -1.90002 1.59999
                      CHANNELS 6 Xposition Yposition Zposition Zrotation Xrotation Yrotation
                      JOINT LeftHandIndex1
                      {
                        OFFSET -1.36592e-05 -8.3 1.89999
                        CHANNELS 6 Xposition Yposition Zposition Zrotation Xrotation Yrotation
                        JOINT LeftHandIndex2
                        {
                          OFFSET 3.65074e-05 -4.49997 1.08723e-05
                          CHANNELS 6 Xposition Yposition Zposition Zrotation Xrotation Yrotation
                          JOINT LeftHandIndex3
                          {
                            OFFSET 2.11164e-05 -3.4 1.07823e-05
                            CHANNELS 6 Xposition Yposition Zposition Zrotation Xrotation Yrotation
                            End Site
                            {
                              OFFSET 0 -2.60001 0
                            }
                          }
                        }
                      }
                    }
                    JOINT LeftHandMiddle
                    {
                      OFFSET -0.249994 -2.20002 0.399998
                      CHANNELS 6 Xposition Yposition Zposition Zrotation Xrotation Yrotation
                      JOINT LeftHandMiddle1
                      {
                        OFFSET 0 -8.29999 0.999996
                        CHANNELS 6 Xposition Yposition Zposition Zrotation Xrotation Yrotation
                        JOINT LeftHandMiddle2
                        {
                          OFFSET 2.00897e-05 -4.65002 0
                          CHANNELS 6 Xposition Yposition Zposition Zrotation Xrotation Yrotation
                          JOINT LeftHandMiddle3
                          {
                            OFFSET -1.36e-05 -3.29999 -1.08885e-05
                            CHANNELS 6 Xposition Yposition Zposition Zrotation Xrotation Yrotation
                            End Site
                            {
                              OFFSET -6.42632e-05 -2.7 0
                            }
                          }
                        }
                      }
                    }
                    JOINT LeftHandRing
                    {
                      OFFSET -0.499995 -2.15001 -0.800007
                      CHANNELS 6 Xposition Yposition Zposition Zrotation Xrotation Yrotation
                      JOINT LeftHandRing1
                      {
                        OFFSET 0 -7.75002 -0.199993
                        CHANNELS 6 Xposition Yposition Zposition Zrotation Xrotation Yrotation
                        JOINT LeftHandRing2
                        {
                          OFFSET 2.16893e-05 -3.8 0
                          CHANNELS 6 Xposition Yposition Zposition Zrotation Xrotation Yrotation
                          JOINT LeftHandRing3
                          {
                            OFFSET -2.2679e-05 -3.40004 -2.222e-05
                            CHANNELS 6 Xposition Yposition Zposition Zrotation Xrotation Yrotation
                            End Site
                            {
                              OFFSET 0 -2.59997 1.59421e-05
                            }
                          }
                        }
                      }
                    }
                    JOINT LeftHandPinky
                    {
                      OFFSET -0.749991 -1.75003 -1.85001
                      CHANNELS 6 Xposition Yposition Zposition Zrotation Xrotation Yrotation
                      JOINT LeftHandPinky1
                      {
                        OFFSET 0 -7.15001 -1
                        CHANNELS 6 Xposition Yposition Zposition Zrotation Xrotation Yrotation
                        JOINT LeftHandPinky2
                        {
                          OFFSET 1.70006e-05 -3 0
                          CHANNELS 6 Xposition Yposition Zposition Zrotation Xrotation Yrotation
                          JOINT LeftHandPinky3
                          {
                            OFFSET 0 -2.35 0
                            CHANNELS 6 Xposition Yposition Zposition Zrotation Xrotation Yrotation
                            End Site
                            {
                              OFFSET -1.90867e-05 -2.1 2.09437e-05
                            }
                          }
                        }
                      }
                    }
                  }
                }
              }
            }
          }
          JOINT RightShoulder
          {
            OFFSET -5.00018 17 -2.07164e-05
            CHANNELS 6 Xposition Yposition Zposition Zrotation Xrotation Yrotation
            JOINT RightShoulder2
            {
              OFFSET -6.45 0 0
              CHANNELS 6 Xposition Yposition Zposition Zrotation Xrotation Yrotation
              JOINT RightArm
              {
                OFFSET -6.45 -8.62299e-05 -0.000411447
                CHANNELS 6 Xposition Yposition Zposition Zrotation Xrotation Yrotation
                JOINT RightForeArm
                {
                  OFFSET 1.14964e-05 -32.4 -1.99999
                  CHANNELS 6 Xposition Yposition Zposition Zrotation Xrotation Yrotation
                  JOINT RightHand
                  {
                    OFFSET 0 -25.65 2
                    CHANNELS 6 Xposition Yposition Zposition Zrotation Xrotation Yrotation
                    JOINT RightHandThumb1
                    {
                      OFFSET 0.499965 -1.49999 2.65002
                      CHANNELS 6 Xposition Yposition Zposition Zrotation Xrotation Yrotation
                      JOINT RightHandThumb2
                      {
                        OFFSET 4.76464e-05 -3.8 3.69998
                        CHANNELS 6 Xposition Yposition Zposition Zrotation Xrotation Yrotation
                        JOINT RightHandThumb3
                        {
                          OFFSET -1.40744e-05 -3 2.7
                          CHANNELS 6 Xposition Yposition Zposition Zrotation Xrotation Yrotation
                          End Site
                          {
                            OFFSET -1.15659e-05 -2.29999 1.79999
                          }
                        }
                      }
                    }
                    JOINT RightHandIndex
                    {
                      OFFSET 0 -1.89999 1.59999
                      CHANNELS 6 Xposition Yposition Zposition Zrotation Xrotation Yrotation
                      JOINT RightHandIndex1
                      {
                        OFFSET -2.05033e-05 -8.29999 1.90003
                        CHANNELS 6 Xposition Yposition Zposition Zrotation Xrotation Yrotation
                        JOINT RightHandIndex2
                        {
                          OFFSET 2.18924e-05 -4.50001 -1.61477e-05
                          CHANNELS 6 Xposition Yposition Zposition Zrotation Xrotation Yrotation
                          JOINT RightHandIndex3
                          {
                            OFFSET 4.60695e-05 -3.39999 1.4355e-05
                            CHANNELS 6 Xposition Yposition Zposition Zrotation Xrotation Yrotation
                            End Site
                            {
                              OFFSET -2.2387e-05 -2.59998 1.79541e-05
                            }
                          }
                        }
                      }
                    }
                    JOINT RightHandMiddle
                    {
                      OFFSET 0.249959 -2.19999 0.400014
                      CHANNELS 6 Xposition Yposition Zposition Zrotation Xrotation Yrotation
                      JOINT RightHandMiddle1
                      {
                        OFFSET 0 -8.3 1
                        CHANNELS 6 Xposition Yposition Zposition Zrotation Xrotation Yrotation
                        JOINT RightHandMiddle2
                        {
                          OFFSET -5.20448e-05 -4.65 0
                          CHANNELS 6 Xposition Yposition Zposition Zrotation Xrotation Yrotation
                          JOINT RightHandMiddle3
                          {
                            OFFSET 3.23744e-05 -3.30001 0
                            CHANNELS 6 Xposition Yposition Zposition Zrotation Xrotation Yrotation
                            End Site
                            {
                              OFFSET 0 -2.69999 0
                            }
                          }
                        }
                      }
                    }
                    JOINT RightHandRing
                    {
                      OFFSET 0.499985 -2.15 -0.799996
                      CHANNELS 6 Xposition Yposition Zposition Zrotation Xrotation Yrotation
                      JOINT RightHandRing1
                      {
                        OFFSET -1.1145e-05 -7.74999 -0.199986
                        CHANNELS 6 Xposition Yposition Zposition Zrotation Xrotation Yrotation
                        JOINT RightHandRing2
                        {
                          OFFSET 0 -3.80001 0
                          CHANNELS 6 Xposition Yposition Zposition Zrotation Xrotation Yrotation
                          JOINT RightHandRing3
                          {
                            OFFSET 0 -3.40001 0
                            CHANNELS 6 Xposition Yposition Zposition Zrotation Xrotation Yrotation
                            End Site
                            {
                              OFFSET 0 -2.59998 -1.04394e-05
                            }
                          }
                        }
                      }
                    }
                    JOINT RightHandPinky
                    {
                      OFFSET 0.74999 -1.75 -1.85
                      CHANNELS 6 Xposition Yposition Zposition Zrotation Xrotation Yrotation
                      JOINT RightHandPinky1
                      {
                        OFFSET 0 -7.15 -0.99999
                        CHANNELS 6 Xposition Yposition Zposition Zrotation Xrotation Yrotation
                        JOINT RightHandPinky2
                        {
                          OFFSET 0 -3.00001 0
                          CHANNELS 6 Xposition Yposition Zposition Zrotation Xrotation Yrotation
                          JOINT RightHandPinky3
                          {
                            OFFSET -1.09066e-05 -2.34997 1.35396e-05
                            CHANNELS 6 Xposition Yposition Zposition Zrotation Xrotation Yrotation
                            End Site
                            {
                              OFFSET 1.69273e-05 -2.09999 -4.95671e-05
                            }
                          }
                        }
                      }
                    }
                  }
                }
              }
            }
          }
        }
      }
    }
  }
  JOINT LeftUpLeg
  {
    OFFSET 8 0 -1.55275e-05
    CHANNELS 6 Xposition Yposition Zposition Zrotation Xrotation Yrotation
    JOINT LeftLeg
    {
      OFFSET -1.58931e-05 -45 -0.999982
      CHANNELS 6 Xposition Yposition Zposition Zrotation Xrotation Yrotation
      JOINT LeftFoot
      {
        OFFSET 1.12703e-05 -41 -2.00003
        CHANNELS 6 Xposition Yposition Zposition Zrotation Xrotation Yrotation
        JOINT LeftToeBase
        {
          OFFSET -1.2477e-05 -7.5 12.5
          CHANNELS 6 Xposition Yposition Zposition Zrotation Xrotation Yrotation
          JOINT LeftFootToe
          {
            OFFSET 0 0 4
            CHANNELS 6 Xposition Yposition Zposition Zrotation Xrotation Yrotation
            End Site
            {
              OFFSET 0 0 0
            }
          }
        }
      }
    }
  }
  JOINT RightUpLeg
  {
    OFFSET -8 0 1.55275e-05
    CHANNELS 6 Xposition Yposition Zposition Zrotation Xrotation Yrotation
    JOINT RightLeg
    {
      OFFSET 1.32755e-05 -45 -1.00002
      CHANNELS 6 Xposition Yposition Zposition Zrotation Xrotation Yrotation
      JOINT RightFoot
      {
        OFFSET 1.5476e-05 -41 -1.99997
        CHANNELS 6 Xposition Yposition Zposition Zrotation Xrotation Yrotation
        JOINT RightToeBase
        {
          OFFSET 0 -7.50001 12.5
          CHANNELS 6 Xposition Yposition Zposition Zrotation Xrotation Yrotation
          JOINT RightFootToe
          {
            OFFSET 0 0 4
            CHANNELS 6 Xposition Yposition Zposition Zrotation Xrotation Yrotation
            End Site
            {
              OFFSET 0 0 0
            }
          }
        }
      }
    }
  }
}
MOTION
Frames:	3
Frame Time:	0.0111111
-257.084 74.126 770.171 -5.46887 16.8259 173.623 -2.84217e-14 8 -1.13687e-13 5.43219 12.9299 -13.928 2.84217e-14 8 -1.13687e-13 1.38899 7.20809 2.63854 0 8 0 0.735519 3.60028 1.34011 -2.84217e-14 8 0 0.734121 3.59193 1.3369 0 17 0 0.184181 0.498163 -4.64695 -5.68434e-14 10.8 0 0.490931 1.13039 -10.8605 5 17 0 -6.4272 -6.37713 8.57447 6.45 7.10543e-15 0 -0.30017 -0.310371 5.71031 6.45 -3.55271e-14 -1.13687e-13 57.6575 -16.351 -19.1718 -2.84217e-14 -32.4 -2 -18.3044 -55.9572 -33.9928 5.68434e-14 -25.65 2 8.13788 -19.9746 -18.6833 -0.5 -1.5 2.65 0.733904 -25.817 -10.2061 -5.68434e-14 -3.8 3.7 -0.0519986 16.0969 0.0251117 5.68434e-14 -3 2.7 -0.0155175 46.0675 0.00843767 0 -1.9 1.6 3.18055e-15 0 3.18055e-15 -5.68434e-14 -8.3 1.9 -5.02361 -15.8787 -0.617965 0 -4.5 0 0.013081 0.381313 -0.368885 0 -3.4 5.68434e-14 0.0023447 0.370778 -0.387834 -0.25 -2.2 0.4 3.18055e-15 0 3.18055e-15 0 -8.3 1 -5.39147 -4.74555 0.148767 5.68434e-14 -4.65 5.68434e-14 -0.00750338 -0.267246 -0.0952994 0 -3.3 5.68434e-14 -0.000436219 -0.255288 -0.101263 -0.5 -2.15 -0.8 3.18055e-15 0 3.18055e-15 0 -7.75 -0.2 -7.81069 12.8594 1.78846 -5.68434e-14 -3.8 -8.52651e-14 1.37057e-06 -0.0249697 -0.0340072 0 -3.4 0 2.98931e-05 0.010976 -0.0330981 -0.75 -1.75 -1.85 3.18055e-15 0 3.18055e-15 0 -7.15 -1 -9.88489 24.8144 3.55693 0 -3 5.68434e-14 -0.0300221 -0.205123 -0.0385707 5.68434e-14 -2.35 0 -0.000171365 -0.20409 -0.0363418 -5 17 0 2.72015 -5.79826 4.28825 -6.45 1.06581e-14 0 -2.80518 0.806392 -4.862 -6.45 1.42109e-14 1.13687e-13 -2.93975 -4.12286 17.4188 5.68434e-14 -32.4 -2 -37.6684 -44.194 -80.7289 -5.68434e-14 -25.65 2 -2.26495 27.5786 -24.7723 0.5 -1.5 2.65 -3.03788 -29.8158 -3.70801 0 -3.8 3.7 0.60763 -2.21081 -0.322266 0 -3 2.7 -0.0766939 -0.471833 -0.0730075 0 -1.9 1.6 -2.79311e-07 2.90252e-06 3.23764e-07 -1.13687e-13 -8.3 1.9 0.999755 8.48493 -0.117793 1.13687e-13 -4.5 0 3.06486 0.101694 -0.090706 1.13687e-13 -3.4 0 0.00246209 0.650498 -0.216045 0.25 -2.2 0.4 -2.79311e-07 2.90252e-06 3.23764e-07 0 -8.3 1 13.2056 9.4701 -1.89416 5.68434e-14 -4.65 -5.68434e-14 3.27343 -0.0441068 0.0393464 0 -3.3 0 2.00409e-05 -0.0477394 0.00256164 0.5 -2.15 -0.8 -2.79311e-07 2.90252e-06 3.23764e-07 0 -7.75 -0.2 34.0806 9.80881 -5.16145 0 -3.8 0 0.0144576 -0.0576268 0.326038 0 -3.4 0 -0.0284207 -0.0564966 1.39785 0.75 -1.75 -1.85 -2.79311e-07 2.90252e-06 3.23764e-07 0 -7.15 -1 51.8188 11.1206 -8.80269 0 -3 0 0.00164823 2.24727e-05 0.218297 0 -2.35 0 -1.09327e-06 -2.42422e-05 0.383852 8 -5.68434e-14 0 11.3209 -37.4609 20.3481 5.68434e-14 -45 -1 0.9306 45.587 -10.9358 -5.68434e-14 -41 -2 -4.09369 6.06366 9.56571 0 -7.5 12.5 -5.16027e-09 -1.26564e-05 -8.48529e-08 0 0 4 2.71423 -15.6198 45.9012 -8 0 -1.13687e-13 21.1279 -38.2847 27.5196 -1.13687e-13 -45 -1 -1.83436 80.0959 2.25799 5.68434e-14 -41 -2 -8.35511 -0.685948 19.3725 0 -7.5 12.5 4.61125e-07 -3.4112 3.64413e-06 0 0 4 -3.33205 4.62107 14.2946 
-257.083 74.1217 770.178 -5.44116 16.8083 173.638 2.84217e-14 8 0 5.41113 12.944 -13.9021 0 8 0 1.40147 7.19073 2.66956 0 8 0 0.742152 3.59135 1.35576 2.84217e-14 8 0 0.74011 3.58295 1.35212 -2.84217e-14 17 1.13687e-13 0.306521 0.506097 -4.74174 0 10.8 0 0.778318 1.13261 -11.0841 5 17 0 -6.46065 -6.37927 8.29931 6.45 1.42109e-14 -1.13687e-13 -0.29738 -0.326712 5.71595 6.45 -2.84217e-14 1.13687e-13 57.4519 -15.8761 -19.3584 -2.84217e-14 -32.4 -2 -18.1809 -55.8913 -33.9393 0 -25.65 2 8.1289 -19.9123 -18.7052 -0.5 -1.5 2.65 1.04243 -26.1907 -9.9879 0 -3.8 3.7 -0.0516664 16.1653 0.0242184 0 -3 2.7 -0.0153376 45.7819 0.00827591 5.68434e-14 -1.9 1.6 -3.18055e-15 0 1.59028e-15 0 -8.3 1.9 -4.9445 -15.7283 -0.602587 0 -4.5 0 0.0130232 0.381293 -0.368181 5.68434e-14 -3.4 -2.84217e-14 0.00233939 0.370757 -0.387142 -0.25 -2.2 0.4 -3.18055e-15 0 1.59028e-15 -5.68434e-14 -8.3 1 -5.39515 -4.58258 0.164367 0 -4.65 0 -0.0074734 -0.265813 -0.0948756 0 -3.3 5.68434e-14 -0.000431307 -0.253921 -0.100733 -0.5 -2.15 -0.8 -3.18055e-15 0 1.59028e-15 0 -7.75 -0.2 -7.99319 13.0799 1.85101 0 -3.8 -2.84217e-14 -1.37895e-06 -0.0263803 -0.0367344 -5.68434e-14 -3.4 -8.52651e-14 3.04549e-05 0.0114273 -0.0357994 -0.75 -1.75 -1.85 -3.18055e-15 0 1.59028e-15 0 -7.15 -1 -10.2054 25.1416 3.70036 0 -3 -5.68434e-14 -0.030018 -0.204137 -0.0378798 5.68434e-14 -2.35 5.68434e-14 -0.000168414 -0.203101 -0.0356958 -5 17 1.13687e-13 2.79166 -5.77129 4.17251 -6.45 7.10543e-15 -1.13687e-13 -2.79965 0.780385 -4.81362 -6.45 1.42109e-14 0 -2.6829 -3.87565 17.4317 5.68434e-14 -32.4 -2 -38.358 -44.3956 -81.3743 -1.13687e-13 -25.65 2 -2.4635 27.6825 -25.1646 0.5 -1.5 2.65 -2.92422 -29.8207 -3.57793 0 -3.8 3.7 0.606408 -2.21089 -0.32351 1.13687e-13 -3 2.7 -0.0772664 -0.471833 -0.0731895 0 -1.9 1.6 -2.79311e-07 2.90252e-06 3.23764e-07 -1.13687e-13 -8.3 1.9 0.917424 8.1392 -0.104689 0 -4.5 0 3.06486 0.101864 -0.091021 1.13687e-13 -3.4 1.13687e-13 0.00247121 0.651631 -0.216471 0.25 -2.2 0.4 -2.79311e-07 2.90252e-06 3.23764e-07 1.13687e-13 -8.3 1 13.2219 9.31889 -1.88471 0 -4.65 0 3.27372 -0.0464724 0.0388709 0 -3.3 0 1.99968e-05 -0.0501501 0.00238813 0.5 -2.15 -0.8 -2.79311e-07 2.90252e-06 3.23764e-07 0 -7.75 -0.2 34.2192 9.89311 -5.22509 -5.68434e-14 -3.8 0 0.0144769 -0.0607824 0.327333 0 -3.4 0 -0.0301025 -0.0595782 1.39689 0.75 -1.75 -1.85 -2.79311e-07 2.90252e-06 3.23764e-07 0 -7.15 -1 52.0995 11.3371 -8.98666 1.42109e-14 -3 5.68434e-14 0.00164823 2.24727e-05 0.217983 0 -2.35 0 -1.0935e-06 -2.42422e-05 0.383296 8 5.68434e-14 0 11.3255 -37.4967 20.2855 -5.68434e-14 -45 -1 0.92521 45.5976 -10.9186 1.13687e-13 -41 -2 -4.1073 6.01604 9.60328 -1.13687e-13 -7.5 12.5 -5.16027e-09 -1.26564e-05 -8.48529e-08 -5.68434e-14 -7.10543e-15 4 2.72589 -15.5589 45.8954 -8 0 1.13687e-13 21.1826 -38.3099 27.5313 0 -45 -1 -1.86421 80.0915 2.29483 0 -41 -2 -8.33206 -0.685841 19.4118 0 -7.5 12.5 4.47678e-07 -3.2001 3.64335e-06 -1.13687e-13 2.84217e-14 4 -3.36688 4.42923 14.2722 
-257.082 74.1154 770.186 -5.41642 16.7919 173.653 0 8 0 5.38862 12.9614 -13.8693 0 8 1.13687e-13 1.41374 7.17653 2.70721 -5.68434e-14 8 -1.13687e-13 0.7488 3.58392 1.37473 0 8 0 0.746898 3.57575 1.37066 0 17 0 0.42326 0.505572 -4.83691 0 10.8 -1.13687e-13 1.05172 1.11543 -11.3086 5 17 0 -6.46155 -6.36204 8.0498 6.45 1.42109e-14 0 -0.297069 -0.338182 5.71748 6.45 0 0 57.2079 -15.453 -19.5257 0 -32.4 -2 -18.0259 -55.8372 -33.7683 0 -25.65 2 7.97856 -19.7686 -18.8486 -0.5 -1.5 2.65 1.43338 -26.5959 -9.73367 -5.68434e-14 -3.8 3.7 -0.0513656 16.2958 0.0233555 5.68434e-14 -3 2.7 -0.0151573 45.5278 0.0081244 0 -1.9 1.6 -6.36111e-15 3.18055e-15 2.38542e-15 -5.68434e-14 -8.3 1.9 -4.84105 -15.5321 -0.582675 -5.68434e-14 -4.5 5.68434e-14 0.012965 0.381215 -0.367472 0 -3.4 5.68434e-14 0.00233401 0.370735 -0.386439 -0.25 -2.2 0.4 -6.36111e-15 3.18055e-15 2.38542e-15 0 -8.3 1 -5.37861 -4.40326 0.180301 0 -4.65 0 -0.00744292 -0.264369 -0.0944165 -5.68434e-14 -3.3 0 -0.000426393 -0.252546 -0.1002 -0.5 -2.15 -0.8 -6.36111e-15 3.18055e-15 2.38542e-15 -5.68434e-14 -7.75 -0.2 -8.15109 13.2884 1.90817 5.68434e-14 -3.8 2.84217e-14 -4.15326e-06 -0.0277794 -0.0393097 0 -3.4 0 3.09814e-05 0.0118169 -0.0383931 -0.75 -1.75 -1.85 -6.36111e-15 3.18055e-15 2.38542e-15 -5.68434e-14 -7.15 -1 -10.4928 25.4291 3.8305 0 -3 0 -0.0300139 -0.203149 -0.0371931 0 -2.35 0 -0.000165512 -0.202106 -0.0350588 -5 17 0 2.85725 -5.73832 4.0505 -6.45 0 0 -2.79456 0.752551 -4.76276 -6.45 2.13163e-14 -1.13687e-13 -2.44307 -3.66923 17.4385 0 -32.4 -2 -39.0592 -44.5643 -81.9801 1.13687e-13 -25.65 2 -2.66343 27.7475 -25.5366 0.5 -1.5 2.65 -2.78801 -29.8075 -3.39208 0 -3.8 3.7 0.605345 -2.21097 -0.324722 0 -3 2.7 -0.0778387 -0.471833 -0.0733721 1.13687e-13 -1.9 1.6 -2.79311e-07 2.90252e-06 3.23764e-07 0 -8.3 1.9 0.85151 7.84027 -0.0936532 0 -4.5 0 3.06486 0.10203 -0.0913361 1.13687e-13 -3.4 0 0.00248035 0.652765 -0.216897 0.25 -2.2 0.4 -2.79311e-07 2.90252e-06 3.23764e-07 0 -8.3 1 13.249 9.18614 -1.87737 -5.68434e-14 -4.65 0 3.27402 -0.048822 0.0383979 5.68434e-14 -3.3 0 1.99401e-05 -0.0525511 0.00221719 0.5 -2.15 -0.8 -2.79311e-07 2.90252e-06 3.23764e-07 0 -7.75 -0.2 34.3432 9.9643 -5.2816 -1.13687e-13 -3.8 0 0.0144963 -0.0639243 0.328631 0 -3.4 -5.68434e-14 -0.0317539 -0.062651 1.39592 0.75 -1.75 -1.85 -2.79311e-07 2.90252e-06 3.23764e-07 -1.13687e-13 -7.15 -1 52.3521 11.5205 -9.1498 0 -3 -5.68434e-14 0.00164823 2.24727e-05 0.217665 0 -2.35 5.68434e-14 -1.09374e-06 -2.42422e-05 0.382739 8 0 0 11.3166 -37.536 20.1904 0 -45 -1 0.917118 45.6095 -10.8967 5.68434e-14 -41 -2 -4.13245 5.94683 9.66341 0 -7.5 12.5 -5.16027e-09 -1.26564e-05 -8.48529e-08 0 -7.10543e-15 4 2.74457 -15.4836 45.8882 -8 0 0 21.2516 -38.3329 27.5575 0 -45 -1 -1.88825 80.0915 2.32429 0 -41 -2 -8.30478 -0.67895 19.439 -1.13687e-13 -7.5 12.5 4.32816e-07 -2.96669 3.64256e-06 0 0 4 -3.40156 4.20676 14.2373 
